<?xml version="1.0" ?><!DOCTYPE svg  PUBLIC '-//W3C//DTD SVG 1.1//EN'  'http://www.w3.org/Graphics/SVG/1.1/DTD/svg11.dtd'><svg enable-background="new 0 0 595.3 595.3" height="595.3px" id="Layer_2" version="1.1" viewBox="0 0 595.3 595.3" width="595.3px" xml:space="preserve" xmlns="http://www.w3.org/2000/svg" xmlns:xlink="http://www.w3.org/1999/xlink"><g><g id="XMLID_2297_"><g id="XMLID_2298_"><g id="XMLID_2349_"><g id="XMLID_2880_"><path d="M297.6,525c18.6-31,188.8-106.4,220.4-192.2S470.5,113.2,407.6,83.1c-62.9-30.1-109.9,2.2-109.9,2.2        s-47-32.3-109.9-2.2S45.6,247,77.2,332.8S279.1,494,297.6,525z" fill="#8E421F"/></g></g><g id="XMLID_2346_"><g id="XMLID_2855_"><path d="M472.8,231.9c-32-28.7-52.2-131.3-107.5-129.3s-67.6,36.2-67.6,36.2s-12.3-34.2-67.6-36.2        c-55.3-2-75.5,100.5-107.5,129.3c-32,28.7-40,101.7,8.5,142.7S295.3,453.8,297.6,525c2.4-71.2,118.1-109.3,166.6-150.3        S504.8,260.7,472.8,231.9z" fill="#B64F2B"/></g></g><g id="XMLID_2345_"><g id="XMLID_2877_"><path d="M297.6,538.6l-6-10c-5.7-9.5-32.4-26.8-60.7-45.2c-58.7-38.1-139-90.3-160.3-148.2        c-14.9-40.3-7.5-95.4,20.1-151.2c24.5-49.5,61.4-91.6,94-107.2c56-26.8,99.8-7,113,0.3c13.1-7.4,56.9-27.1,113-0.3        c32.6,15.6,69.5,57.7,94,107.2c27.6,55.8,34.9,111,20.1,151.2C503.3,393.1,423,445.3,364.3,483.4        c-28.3,18.4-55,35.7-60.7,45.2L297.6,538.6z M241.7,77.3c-17,0-34.1,4.1-51,12.2c-29.9,14.3-64.3,53.9-87.5,100.8        c-25.9,52.4-33,103.5-19.5,140.2c19.7,53.5,97.8,104.2,154.8,141.3c27.1,17.6,48.1,31.3,59.1,42.3        c10.9-11.1,32-24.7,59.1-42.3c57-37,135.1-87.7,154.8-141.3c13.5-36.7,6.4-87.8-19.5-140.2c-23.2-46.9-57.5-86.4-87.5-100.8        c-24.4-11.7-49.1-15-73.4-9.8c-18.2,3.9-29.4,11.4-29.5,11.5l-4,2.7l-4-2.7c-0.1-0.1-11.3-7.6-29.5-11.5        C256.7,78.1,249.2,77.3,241.7,77.3z" fill="#68220F"/></g></g><g id="XMLID_2344_"><g><path d="M440.7,288.1c0-29.7-28.5-62.1-49-89c-26.2-34.5-37.7-60.2-94.1-60.2c-55.6,0-67.9,25.7-94.1,60.2        c-20.5,26.9-49,59.2-49,89c0,41.3,23.7,68.2,60,82.9c4.1,32.4,39.7,57.7,83.1,57.7c43.4,0,79-25.3,83.1-57.7        C417.1,356.2,440.7,329.3,440.7,288.1z" fill="#F8B146"/></g></g><g id="XMLID_2343_"><g><path d="M380.7,370.9l-13.5-50.6c0,0,32.3,21.9,51,7.2s21.2-32.3,21.2-32.3s-4.8,30.8-16.8,44.5        C410.7,353.3,380.7,370.9,380.7,370.9z" fill="#F18325"/></g></g><g id="XMLID_2342_"><g><path d="M215.7,370.9l13.5-50.6c0,0-32.3,21.9-51,7.2s-21.2-32.3-21.2-32.3s4.8,30.8,16.8,44.5        C185.7,353.3,215.7,370.9,215.7,370.9z" fill="#F18325"/></g></g><g id="XMLID_2341_"><g id="XMLID_2874_"><path d="M297.6,435.7c-45,0-82.5-25.4-89.4-59.8c-39.7-17.4-60.7-47.6-60.7-87.8c0-28.4,22.5-57.3,42.3-82.7        c2.8-3.6,5.5-7.1,8.1-10.5c2.8-3.7,5.4-7.2,8-10.7c21.5-29.2,38.5-52.3,91.7-52.3c53.5,0,70.1,22.7,91.2,51.5        c2.7,3.7,5.5,7.5,8.5,11.4c2.6,3.4,5.3,6.8,8.1,10.5c19.8,25.5,42.3,54.4,42.3,82.7c0,40.2-21,70.5-60.7,87.8        C380.1,410.3,342.6,435.7,297.6,435.7z M297.6,145.9c-46.1,0-59.1,17.5-80.4,46.6c-2.6,3.5-5.2,7.1-8.1,10.9        c-2.6,3.5-5.3,6.9-8.2,10.6c-18.5,23.7-39.4,50.6-39.4,74.1c0,35.7,18.7,61.4,55.6,76.4l3.8,1.5l0.5,4.1        c1.7,13.8,10.2,26.6,23.9,36.2c14.2,10,32.8,15.5,52.3,15.5s38-5.5,52.3-15.5c13.7-9.6,22.2-22.4,23.9-36.2l0.5-4.1l3.8-1.5        c36.9-15,55.6-40.7,55.6-76.4c0-23.6-20.9-50.4-39.4-74.1c-2.9-3.7-5.6-7.1-8.2-10.6c-3-4-5.9-7.9-8.6-11.6        C356.6,163.2,344,145.9,297.6,145.9z" fill="#68220F"/></g></g><g id="XMLID_2334_"><g id="XMLID_2340_"><g><path d="M191.8,143.2c0,0-25.2-22.1-55.4-22c-22.8,0.1-48,35.2-33.3,68.4c10,22.6,39.8,27.3,56.8,9.5         C174.1,184.2,184.3,165.2,191.8,143.2z" fill="#F8B146"/></g></g><g id="XMLID_2339_"><g><path d="M177.1,176c0,0-0.8-21.9-23.6-28.9s-34.8,4.2-29.8,21.7c5,17.5,38.7,19.3,34.3,32         C158.1,200.9,172.2,191.9,177.1,176z" fill="#F18325"/></g></g><g id="XMLID_2338_"><g><path d="M394.2,140.2c0,0,25.2-22.1,55.4-22c22.8,0.1,48,35.2,33.3,68.4c-10,22.6-39.8,27.3-56.8,9.5         C411.9,181.2,401.7,162.2,394.2,140.2z" fill="#F8B146"/></g></g><g id="XMLID_2337_"><g><path d="M418.2,176c0,0,0.8-21.9,23.6-28.9s34.8,4.2,29.8,21.7s-38.7,19.3-34.3,32         C437.2,200.9,423.1,191.9,418.2,176z" fill="#F18325"/></g></g><g id="XMLID_2336_"><g id="XMLID_2871_"><path d="M134.4,217.9c-2,0-4-0.1-6.1-0.4c-12.7-1.9-23.5-9.5-29.6-20.9c-9.8-18.3-9.2-40.1,1.6-58.2         c8.8-14.8,22.7-24.1,36.1-24.2c0.1,0,0.2,0,0.3,0c20.7,0,38.9,9.2,50.6,16.9c7.8,5.2,11,15.3,7.6,24v0         c-8.3,21-18.7,37.6-31.9,50.8C155.3,213.7,145.1,217.9,134.4,217.9z M136.7,128.2c-0.1,0-0.2,0-0.2,0         c-8.4,0-17.9,6.8-24.1,17.3c-8.3,13.9-8.8,30.5-1.3,44.4c4,7.4,11,12.4,19.3,13.6c8.4,1.2,16.7-1.5,22.8-7.6         c11.8-11.8,21.2-26.8,28.7-46l0,0c1-2.6,0.1-5.6-2.3-7.2C171.3,137.3,154.8,128.2,136.7,128.2z" fill="#68220F"/></g></g><g id="XMLID_2335_"><g id="XMLID_2870_"><path d="M162.1,161.2c-1.5,0-3-0.7-4-2c-0.4-0.5-8.3-10.2-24-6c-2.7,0.7-5.4-0.9-6.1-3.5         c-0.7-2.7,0.9-5.4,3.5-6.1c22.5-6.1,34.1,8.9,34.6,9.6c1.7,2.2,1.2,5.3-1,7C164.2,160.9,163.1,161.2,162.1,161.2z" fill="#68220F"/></g></g></g><g id="XMLID_2331_"><g id="XMLID_2333_"><g id="XMLID_2867_"><path d="M451.6,214.9c-10.7,0-20.9-4.2-28.7-12c-13.2-13.2-23.6-29.8-31.9-50.8v0c-3.4-8.7-0.2-18.8,7.6-24         c11.7-7.7,29.9-16.9,50.6-16.9c0.1,0,0.2,0,0.3,0c13.4,0.1,27.2,9.3,36.1,24.2c10.8,18.1,11.4,39.9,1.6,58.2         c-6.1,11.4-16.9,19-29.6,20.9C455.7,214.7,453.7,214.9,451.6,214.9z M404.1,147c7.5,19.2,16.9,34.2,28.7,46         c6.1,6.1,14.4,8.8,22.8,7.6c8.3-1.2,15.3-6.2,19.3-13.6c7.5-13.9,7-30.6-1.3-44.4c-6.3-10.5-15.7-17.3-24.1-17.3         c-0.1,0-0.2,0-0.2,0c-18.1,0-34.6,9.1-42.9,14.6C404.1,141.3,403.1,144.4,404.1,147L404.1,147z" fill="#68220F"/></g></g><g id="XMLID_2332_"><g id="XMLID_2866_"><path d="M423.9,158.2c-1,0-2.1-0.3-3-1c-2.2-1.7-2.6-4.8-1-7c0.5-0.6,12.1-15.6,34.6-9.6         c2.7,0.7,4.2,3.5,3.5,6.1c-0.7,2.7-3.5,4.2-6.1,3.5c-16.1-4.3-23.9,5.8-24,5.9C427,157.5,425.5,158.2,423.9,158.2z" fill="#68220F"/></g></g></g><g id="XMLID_2329_"><g id="XMLID_2330_"><g><path d="M207.6,371.7c-0.1-0.7,13.9-26.8,13.9-26.8c-1.6,10.1,0,25,0,25.2L207.6,371.7z" fill="#68220F"/></g></g></g><g id="XMLID_2325_"><g id="XMLID_2326_"><g><path d="M387.7,371.7l-13.9-1.6c0-0.3,1.7-15.2,0-25.2C373.8,345,387.8,371,387.7,371.7z M380.7,370.9l-7-0.8         c0,0,0,0,0,0L380.7,370.9z" fill="#68220F"/></g></g></g><g id="XMLID_2322_"><g><path d="M274,197.7c0,0-3.3-0.5-8.2-1.2c-1.1-0.2-2.4-0.3-3.7-0.5c-1.3-0.1-2.6-0.4-4-0.5        c-0.7-0.1-1.4-0.2-2.1-0.3c-0.7-0.1-1.4-0.1-2.1-0.2c-0.7-0.1-1.4-0.2-2.1-0.2c-0.7,0-1.4-0.1-2.2-0.2l-1.1-0.1l-1.1-0.1        c-0.7,0-1.4-0.1-2.2-0.2c-1.4-0.1-2.8-0.1-4.2-0.3c-1.4-0.1-2.7-0.1-4-0.2c-0.7-0.1-1.3-0.1-1.9-0.1c-0.6,0-1.2,0-1.8,0        c-0.6,0-1.2-0.1-1.7-0.1c-0.3,0-0.5,0-0.8-0.1c-0.3,0-0.5,0-0.8,0c-1,0-1.9-0.1-2.6-0.1c-0.7,0-1.4-0.1-1.8-0.2        c-0.4,0-0.6-0.1-0.6-0.1s0.1-0.2,0.4-0.4c0.3-0.3,0.7-0.7,1.3-1.2c0.6-0.5,1.3-1.1,2.2-1.7c0.8-0.7,1.9-1.2,3.1-1.8        c1.2-0.6,2.4-1.2,3.8-1.7c0.7-0.2,1.4-0.4,2.2-0.7c0.8-0.2,1.5-0.5,2.3-0.6c0.8-0.1,1.6-0.3,2.5-0.4c0.8-0.1,1.7-0.2,2.5-0.2        c0.9,0,1.7,0,2.6,0l1.3,0l1.3,0.1c0.9,0.1,1.7,0.2,2.6,0.3c0.9,0.1,1.7,0.3,2.5,0.5c0.8,0.2,1.7,0.4,2.5,0.7        c0.8,0.3,1.6,0.6,2.3,0.8c0.8,0.3,1.5,0.6,2.2,1c0.7,0.4,1.4,0.7,2,1c1.3,0.8,2.5,1.5,3.5,2.3c1,0.8,1.9,1.6,2.7,2.3        c0.7,0.8,1.4,1.5,1.8,2.1C273.6,196.9,274,197.7,274,197.7z" fill="#68220F"/></g></g><g id="XMLID_2319_"><g><path d="M321.3,197.7c0,0,0.4-0.8,1.3-2c0.5-0.6,1.1-1.3,1.8-2.1c0.8-0.7,1.6-1.6,2.7-2.3        c1-0.8,2.2-1.6,3.5-2.3c0.6-0.4,1.3-0.7,2-1c0.7-0.4,1.4-0.7,2.2-1c0.8-0.3,1.5-0.6,2.3-0.8c0.8-0.3,1.6-0.4,2.5-0.7        c0.8-0.2,1.7-0.4,2.5-0.5c0.9-0.1,1.7-0.2,2.6-0.3l1.3-0.1l1.3,0c0.9,0,1.7,0,2.6,0c0.9,0,1.7,0.1,2.5,0.2        c0.8,0.1,1.7,0.2,2.5,0.4c0.8,0.1,1.6,0.4,2.3,0.6c0.8,0.2,1.5,0.4,2.2,0.7c1.4,0.4,2.7,1.1,3.8,1.7c1.1,0.6,2.2,1.1,3.1,1.8        c0.9,0.6,1.6,1.2,2.2,1.7c0.6,0.5,1,0.9,1.3,1.2c0.3,0.3,0.4,0.4,0.4,0.4s-0.2,0-0.6,0.1c-0.4,0-1,0.1-1.8,0.2        c-0.7,0.1-1.6,0.1-2.6,0.1c-0.2,0-0.5,0-0.8,0c-0.3,0-0.5,0-0.8,0.1c-0.6,0-1.1,0.1-1.7,0.1c-0.6,0-1.2,0-1.8,0        c-0.6,0-1.3,0-1.9,0.1c-1.3,0.1-2.7,0.1-4,0.2c-1.4,0.1-2.8,0.1-4.2,0.3c-0.7,0.1-1.4,0.1-2.2,0.2l-1.1,0.1l-1.1,0.1        c-0.7,0.1-1.4,0.1-2.2,0.2c-0.7,0-1.4,0.2-2.1,0.2c-0.7,0.1-1.4,0.1-2.1,0.2c-0.7,0.1-1.4,0.2-2.1,0.3c-1.4,0.1-2.7,0.4-4,0.5        c-1.3,0.2-2.5,0.3-3.7,0.5C324.5,197.2,321.3,197.7,321.3,197.7z" fill="#68220F"/></g></g><g id="XMLID_2318_"><g><path d="M329.2,309.1c0,11.2-14.1,25.2-31.6,25.2c-17.5,0-31.6-14-31.6-25.2c0-11.2,14.1-15.3,31.6-15.3        C315.1,293.8,329.2,297.9,329.2,309.1z" fill="#80301C"/></g></g><g id="XMLID_2317_"><g id="XMLID_2863_"><path d="M297.6,338.4c-19.7,0-35.6-16-35.6-29.2c0-7.2,4.6-19.3,35.6-19.3s35.6,12.1,35.6,19.3        C333.2,322.4,317.4,338.4,297.6,338.4z M297.6,297.8c-8.3,0-27.6,1.1-27.6,11.3c0,8.4,11.9,21.2,27.6,21.2        s27.6-12.9,27.6-21.2C325.2,298.9,305.9,297.8,297.6,297.8z" fill="#68220F"/></g></g><g id="XMLID_2316_"><g id="XMLID_2862_"><path d="M297.6,372.3c-2.5,0-4.5-2-4.5-4.5v-33.5c0-2.5,2-4.5,4.5-4.5c2.5,0,4.5,2,4.5,4.5v33.5        C302.1,370.3,300.1,372.3,297.6,372.3z" fill="#68220F"/></g></g><g id="XMLID_2315_"><g id="XMLID_2861_"><rect fill="#68220F" height="47.2" transform="matrix(0.2757 -0.9613 0.9613 0.2757 -139.1189 405.7451)" width="8" x="195.7" y="271.6"/></g></g><g id="XMLID_2314_"><g id="XMLID_2860_"><rect fill="#68220F" height="8" transform="matrix(0.9933 -0.1155 0.1155 0.9933 -35.4865 24.8839)" width="28.9" x="182.6" y="314.7"/></g></g><g id="XMLID_2313_"><g id="XMLID_2859_"><rect fill="#68220F" height="8" transform="matrix(0.9613 -0.2756 0.2756 0.9613 -66.0362 120.4759)" width="47.2" x="372" y="291.2"/></g></g><g id="XMLID_2312_"><g id="XMLID_2858_"><rect fill="#68220F" height="28.9" transform="matrix(0.1155 -0.9933 0.9933 0.1155 35.7267 677.4881)" width="8" x="394.3" y="304.3"/></g></g><g id="XMLID_2309_"><g id="XMLID_2311_"><g id="XMLID_2857_"><path d="M279,381.7c-12.8,0-23.2-10.4-23.2-23.2c0-2.5,2-4.5,4.5-4.5c2.5,0,4.5,2,4.5,4.5         c0,7.8,6.4,14.2,14.2,14.2c7.8,0,14.2-6.4,14.2-14.2c0-2.5,2-4.5,4.5-4.5c2.5,0,4.5,2,4.5,4.5         C302.1,371.3,291.7,381.7,279,381.7z" fill="#68220F"/></g></g><g id="XMLID_2310_"><g id="XMLID_2856_"><path d="M316.3,381.7c-12.8,0-23.2-10.4-23.2-23.2c0-2.5,2-4.5,4.5-4.5c2.5,0,4.5,2,4.5,4.5         c0,7.8,6.4,14.2,14.2,14.2c7.8,0,14.2-6.4,14.2-14.2c0-2.5,2-4.5,4.5-4.5c2.5,0,4.5,2,4.5,4.5         C339.5,371.3,329.1,381.7,316.3,381.7z" fill="#68220F"/></g></g></g><g id="XMLID_2299_"><g id="XMLID_2302_"><g id="XMLID_2305_"><g id="XMLID_2306_"><g id="XMLID_2307_"><g><path d="M225.6,204.6c13.6-0.2,26.9,2.1,40.2,5c7.9,1.7,15.9,3.4,23.9,4.9c6.7,1.2,13.5,0.7,20.2-0.6            c10.4-2,20.7-4.4,31.2-6.2c7.6-1.3,15.4-2,23.1-2.6c9.1-0.7,18.3-0.2,27.4,0.8c9.1,1.1,18.3,2.1,27.4,3.3            c4.9,0.6,9.8,1.3,14.7,2c1.7,0.2,2.1,0.7,2.2,2.4c0.1,4.9,0.2,9.7,0.3,14.6c0,1.4-0.5,2.1-2,2.3c-2.8,0.2-4.6,2-5.5,4.4            c-1,2.8-1.7,5.8-2.3,8.8c-1.9,9.6-3.4,19.2-6.6,28.5c-3.2,9.2-8.6,16.7-17.4,21.4c-5.4,2.8-11.2,4.3-17.2,5            c-7,0.8-14.1,0.8-21.1,0.3c-12.7-1-24.3-4.8-33.4-14.3c-5.6-5.8-9.8-12.7-13-20c-2.8-6.5-5.2-13.2-7.8-19.8            c-0.7-1.8-1.4-3.6-2.3-5.3c-3.2-6.1-12.8-6.8-17.2-2.2c-2.9,3-4.6,6.5-5.9,10.3c-2.8,7.6-5.8,15.2-9.8,22.3            c-5.5,9.8-12.7,17.8-22.9,22.8c-6.3,3.1-13.1,4.8-20.1,5.6c-5.8,0.7-11.7,0.9-17.5,0.2c-11.5-1.3-22.1-4.9-30.6-13.3            c-4.5-4.4-7.1-9.9-8.7-16c-2.7-10.3-5-20.6-6.6-31.1c-0.6-4.2-2.8-7.2-7-8.5c-1.3-0.4-1.8-1.2-1.8-2.4            c0.1-4.7,0.1-9.3,0.3-14c0.1-2.6,1-3.4,3.6-3.7c10.4-1,20.7-2.2,31.1-3C204.7,205.5,225.5,204.4,225.6,204.6z" fill="#68220F"/></g></g></g></g><g id="XMLID_2304_"><g><path d="M220.4,289.7c-3,0-6.1-0.2-9-0.6c-14.1-2-22.9-9.7-27-23.5c-2-6.7-2.7-14.1-2.2-23.1          c0.3-4.9,0.9-10.7,3.4-15.8c2.4-5,6.4-8.1,12.8-9.8c6.4-1.7,13.2-2.1,18.9-2.2c0.9,0,1.7,0,2.6,0c0.8,0,3.8,0,4.6,0          c0.9,0,1.6,0,2.4,0c11.1,0,20.7,1.4,29.4,4.4c6.4,2.2,10.7,4.7,13.8,8.1c2.5,2.8,3.6,6,3.4,10c-0.8,11.1-3.9,21.3-9.3,30.2          c-6.9,11.5-17,18.6-29.9,21C229.6,289.3,224.9,289.7,220.4,289.7L220.4,289.7z" fill="#39C2D7"/></g></g><g id="XMLID_2303_"><g><path d="M375,289.7c-2.7,0-5.5-0.1-8.5-0.4c-6.5-0.6-12.1-2-17.2-4.4c-7.2-3.4-13.1-8.7-17.4-15.9          c-5.7-9.5-8.9-20.4-9.5-33.2c-0.3-4.9,1.8-8.9,6.3-12.1c5.1-3.7,11.3-5.3,16.1-6.3c7.1-1.5,14.8-2.1,25.7-2.1h0.1          c6.9,0.1,15.6,0.2,23.8,2.1c3.3,0.8,6.3,1.9,9,3.2c5,2.5,7.9,6.8,8.7,13.2c1,7.5,0.4,15.3-0.2,22.2          c-0.4,5.3-1.3,10-2.8,14.4c-3.1,9.7-9.6,15.5-19.7,17.8C384.9,289.2,380.2,289.7,375,289.7L375,289.7z" fill="#39C2D7"/></g></g></g><g id="XMLID_2301_"><g><path d="M253.8,218.3c-8.1-2.4-16.9-3.6-26.9-3.6c-0.8,0-1.5,0-2.4,0c-0.8,0-3.8,0-4.6,0c-0.9,0-1.7,0-2.6,0         c-0.8,0-1.6,0-2.4,0.1c-10.6,14.9-22.2,27.6-32.7,37.9c0.3,4.7,1,9,2.2,13c1.6,5.3,3.8,9.7,6.8,13.2         C221.5,258.2,242,234.4,253.8,218.3z" fill="#7DD0E1"/></g></g><g id="XMLID_2300_"><g><path d="M395.2,217.4c-0.3-0.1-0.5-0.1-0.8-0.2c-8.2-2-16.9-2.1-23.8-2.1h-0.1c-6,0-11,0.2-15.4,0.6         c-9.9,13.7-20.6,25.6-30.5,35.4c1.6,6.5,4,12.4,7.3,17.8c1.5,2.4,3.1,4.6,4.9,6.6C365,255.3,384.1,232.7,395.2,217.4z" fill="#7DD0E1"/></g></g></g></g></g></g></svg>