<?xml version="1.0" standalone="no"?>
<!DOCTYPE svg PUBLIC "-//W3C//DTD SVG 20010904//EN"
 "http://www.w3.org/TR/2001/REC-SVG-20010904/DTD/svg10.dtd">
<svg version="1.0" xmlns="http://www.w3.org/2000/svg"
 width="128.000000pt" height="128.000000pt" viewBox="0 0 128.000000 128.000000"
 preserveAspectRatio="xMidYMid meet">

<g transform="translate(0.000000,128.000000) scale(0.100000,-0.100000)"
fill="#000000" stroke="none">
<path d="M423 1124 c-23 -9 -61 -32 -85 -52 -24 -21 -55 -43 -70 -49 -35 -15
-60 -54 -69 -106 -4 -23 -17 -69 -30 -102 -31 -81 -33 -221 -5 -280 33 -66
142 -164 304 -274 83 -57 157 -110 162 -120 9 -15 11 -15 20 1 6 9 79 63 163
119 175 118 284 220 312 292 26 68 17 191 -19 277 -15 36 -36 88 -47 115 -10
28 -29 58 -41 68 -13 10 -45 36 -73 57 -83 66 -191 88 -270 56 -31 -13 -39
-13 -70 0 -43 18 -127 17 -182 -2z m582 -139 c44 -43 24 -135 -29 -135 -32 0
-106 83 -106 118 0 11 66 41 93 41 10 1 29 -10 42 -24z m-645 0 c37 -19 37
-26 1 -79 -39 -57 -56 -69 -84 -62 -46 11 -61 86 -26 130 24 30 64 34 109 11z
m376 -44 c17 -10 45 -36 62 -58 l31 -40 -67 -8 c-84 -10 -147 -10 -239 0 l-72
8 31 40 c48 60 82 77 158 77 46 0 74 -6 96 -19z m-178 -141 c23 -14 32 -26 28
-36 -3 -9 -6 -22 -6 -31 0 -8 -13 -28 -29 -44 -39 -39 -100 -41 -136 -4 -27
26 -31 49 -15 90 18 47 101 60 158 25z m297 8 c25 -11 30 -27 26 -83 -4 -46
-27 -65 -78 -65 -59 0 -103 41 -103 95 0 31 4 38 33 50 39 17 88 19 122 3z
m-173 -91 c25 -51 41 -64 103 -84 43 -13 110 7 111 34 3 60 34 49 34 -11 0
-48 -27 -96 -72 -129 -22 -17 -30 -18 -43 -7 -13 11 -15 8 -15 -22 0 -70 -68
-121 -160 -121 -92 0 -160 51 -160 121 0 30 -2 33 -15 22 -33 -27 -115 65
-115 129 0 63 31 79 34 18 1 -14 13 -23 45 -33 25 -7 51 -9 60 -5 9 5 32 16
52 24 28 12 42 27 60 66 29 66 48 65 81 -2z"/>
<path d="M915 966 c-11 -8 -17 -17 -14 -20 9 -9 80 8 80 19 0 16 -44 17 -66 1z"/>
<path d="M280 962 c0 -8 73 -33 79 -27 2 3 -2 11 -9 20 -13 15 -70 21 -70 7z"/>
<path d="M495 870 c-4 -6 12 -10 40 -10 28 0 44 4 40 10 -3 6 -21 10 -40 10
-19 0 -37 -4 -40 -10z"/>
<path d="M707 873 c-15 -14 -5 -18 38 -15 25 2 42 8 39 13 -6 10 -67 12 -77 2z"/>
<path d="M594 651 c-44 -19 -40 -62 8 -87 24 -13 29 -20 26 -47 -4 -39 -42
-52 -53 -18 -7 24 -25 28 -25 7 0 -31 28 -44 92 -44 68 1 88 10 88 39 0 25
-16 24 -23 -1 -6 -24 -42 -27 -51 -4 -12 31 -6 51 19 62 36 17 53 58 33 78
-18 19 -85 27 -114 15z"/>
<path d="M413 603 c-24 -5 -32 -23 -10 -23 26 0 57 13 51 21 -3 5 -8 8 -12 8
-4 -1 -17 -4 -29 -6z"/>
<path d="M830 600 c0 -11 48 -25 57 -16 9 8 3 12 -29 20 -17 4 -28 2 -28 -4z"/>
</g>
</svg>
