<svg xmlns="http://www.w3.org/2000/svg" width="1240" height="1240"><path d="M470 138.017c-10.844.615-13.47 1.123-19.825 3.833-4.371 1.865-12.025 3.929-18.979 5.118-7.148 1.223-12.628 2.714-14.174 3.858-4.212 3.114-8.19 4.799-15.522 6.574-3.85.932-8.8 2.959-11 4.503-2.2 1.544-6.66 3.793-9.91 4.998-3.251 1.205-7.275 3.339-8.944 4.743-1.668 1.404-5.308 3.572-8.089 4.819-2.781 1.247-6.182 3.497-7.557 5.001-1.375 1.504-4.525 3.766-7 5.027-2.475 1.261-5.4 3.306-6.5 4.544-1.1 1.238-3.35 3.061-5 4.051-3.571 2.141-8.776 6.906-27.196 24.895-20.674 20.19-24.451 22.633-37.012 23.944-9.868 1.029-13.009 2.007-17.61 5.478-1.75 1.32-4.982 3.142-7.182 4.048-2.2.905-5.575 3.112-7.5 4.904-1.925 1.791-5.635 4.947-8.245 7.014-2.61 2.067-6.196 5.867-7.969 8.444-1.773 2.578-4.7 6.165-6.505 7.97-1.804 1.806-3.281 3.873-3.281 4.594 0 .721-1.78 3.968-3.955 7.217-2.176 3.248-4.607 8.419-5.403 11.491-.795 3.072-2.823 8.312-4.505 11.645-4.191 8.302-5.12 15.401-5.135 39.27-.007 11.38-.487 22.205-1.077 24.333-.586 2.108-2.608 5.855-4.495 8.327-1.886 2.471-3.43 5.052-3.43 5.735 0 3.315-3.305 11.714-5.89 14.966-1.75 2.203-3.567 6.382-4.591 10.563-.933 3.804-3.166 9.2-4.964 11.99-2.201 3.417-3.799 7.724-4.897 13.195-1.017 5.069-2.775 9.985-4.677 13.077-2.937 4.772-3.663 7.25-5.959 20.314-.58 3.3-2.444 8.88-4.141 12.4-1.895 3.93-3.431 9.14-3.979 13.5-2.044 16.263-3.217 22.147-6.057 30.402-2.71 7.875-3.09 10.591-4.016 28.698-1.176 23.014-.439 84.043 1.126 93.15.581 3.382 2.39 9.007 4.019 12.5 1.884 4.037 3.493 9.892 4.417 16.073 1.169 7.823 2.14 10.852 4.971 15.5 1.935 3.177 4.193 8.425 5.018 11.661.834 3.27 2.843 7.555 4.525 9.648 1.664 2.071 3.896 6.054 4.958 8.851 1.063 2.797 3.125 6.503 4.583 8.235 1.457 1.732 3.586 5.001 4.732 7.266 1.145 2.264 3.823 6.018 5.952 8.344 2.128 2.325 3.87 4.672 3.87 5.216 0 .544 2.016 3.259 4.48 6.033 2.464 2.775 5.224 6.502 6.134 8.284 2.437 4.773 7.925 11.091 28.194 32.455 12.523 13.201 22.365 23.056 28.979 29.018L264.064 845a985.285 985.285 0 009.713 8.626c2.598 2.269 6.973 6.132 9.723 8.584 2.75 2.452 7.25 5.976 10 7.831 2.75 1.855 5.83 4.417 6.845 5.694 1.014 1.276 3.595 3.214 5.735 4.306 2.14 1.091 4.639 3.127 5.554 4.523s3.059 3.249 4.764 4.119c1.706.869 5.22 3.546 7.809 5.949 2.589 2.402 5.149 4.368 5.689 4.368s3.076 1.812 5.634 4.026c2.559 2.214 6.298 4.875 8.311 5.912 2.012 1.038 5.21 3.501 7.105 5.474 1.896 1.974 4.006 3.588 4.689 3.588.684 0 3.337 1.812 5.895 4.026 2.559 2.214 6.523 4.973 8.811 6.13 2.287 1.157 6.061 3.845 8.387 5.974 2.325 2.128 4.686 3.87 5.247 3.87.56 0 2.744 1.558 4.852 3.463 2.108 1.904 5.898 4.347 8.422 5.43 2.525 1.082 6.366 3.571 8.536 5.532 2.17 1.96 5.469 4.203 7.33 4.982 1.862.78 4.51 2.631 5.885 4.114 1.375 1.482 4.975 3.795 8 5.139 3.025 1.344 6.85 3.722 8.5 5.284 1.65 1.562 4.8 3.741 7 4.842 2.2 1.101 4.9 2.999 6 4.218 1.1 1.219 4.981 3.719 8.623 5.555 3.643 1.836 6.885 4.02 7.205 4.852.319.833 3.189 2.832 6.376 4.442 3.188 1.611 6.696 3.936 7.796 5.167 1.1 1.232 3.996 3.101 6.436 4.154s6.368 3.695 8.728 5.87c2.36 2.176 4.949 3.956 5.753 3.956.804 0 3.52 1.782 6.036 3.959 2.516 2.178 6.706 4.9 9.311 6.05 2.605 1.149 6.311 3.572 8.236 5.384 1.925 1.812 4.918 3.851 6.651 4.531 1.733.68 4.208 2.371 5.5 3.758 1.292 1.386 5.33 4.027 8.972 5.868 3.643 1.841 6.884 4.025 7.202 4.854.317.828 2.512 2.484 4.876 3.681 2.365 1.196 6.201 3.916 8.527 6.045 2.325 2.128 4.67 3.87 5.211 3.87.541 0 3.363 1.918 6.272 4.261 2.909 2.344 6.639 5.102 8.289 6.128 2.918 1.816 9.812 8.132 15.295 14.012 1.488 1.596 4.334 4.521 6.326 6.5 1.991 1.98 4.82 5.979 6.286 8.887 4.638 9.202 10.419 9.422 14.533.553 1.235-2.662 4.341-7.004 6.903-9.647 12.26-12.653 17.06-17.104 21.841-20.255 2.851-1.878 5.485-3.904 5.854-4.501.369-.597 3.774-3.074 7.566-5.505 3.793-2.431 6.896-4.864 6.896-5.406 0-.543 1.913-1.955 4.25-3.139 2.337-1.184 5.952-3.68 8.033-5.547 2.081-1.868 6.131-4.443 9-5.724 2.869-1.28 6.117-3.342 7.217-4.581 1.1-1.239 4.025-3.28 6.5-4.536 2.475-1.256 5.4-3.281 6.5-4.5 1.1-1.219 4.25-3.352 7-4.74 2.75-1.388 6.542-3.871 8.427-5.517 1.885-1.646 4.941-3.626 6.791-4.399 1.851-.773 4.808-2.789 6.573-4.479 1.765-1.691 5.459-4.211 8.209-5.599 2.75-1.389 6.689-4.042 8.753-5.896 2.064-1.853 4.437-3.37 5.272-3.37.836 0 3.427-1.758 5.758-3.907s6.709-5.009 9.728-6.355c3.019-1.347 6.389-3.462 7.489-4.7 1.1-1.238 3.8-3.162 6-4.277 2.2-1.114 5.644-3.501 7.654-5.304 2.01-1.803 5.781-4.219 8.381-5.369 2.599-1.15 6.468-3.665 8.598-5.589 2.13-1.925 4.461-3.499 5.18-3.499.718 0 3.589-1.949 6.379-4.33 2.79-2.382 6.588-4.942 8.441-5.689 1.852-.748 5.343-3.074 7.758-5.17s4.987-3.811 5.716-3.811c.73 0 3.596-2.016 6.37-4.48 2.775-2.464 6.502-5.226 8.284-6.139 1.781-.912 4.714-2.943 6.517-4.514 1.803-1.57 4.953-3.714 7-4.764 2.047-1.049 4.847-3.121 6.222-4.603 1.375-1.482 4.075-3.524 6-4.537 1.925-1.013 4.85-3.053 6.5-4.534 1.65-1.481 5.25-4.154 8-5.941 2.75-1.786 5.9-4.25 7-5.475 1.1-1.224 3.672-3.079 5.717-4.123 2.044-1.043 4.194-2.789 4.778-3.881.584-1.091 3.524-3.559 6.533-5.484 3.01-1.925 5.472-3.966 5.472-4.535s1.952-2.272 4.337-3.784c2.385-1.513 6.692-4.766 9.57-7.228 12.742-10.902 17.625-15.199 33.093-29.125 8.194-7.377 8.134-7.321 10.917-10.086 3.767-3.742 6.107-6.177 16.36-17.028 19.623-20.767 26.896-29.144 29.174-33.603.945-1.851 3.42-5.226 5.5-7.5 2.08-2.275 4.578-5.694 5.551-7.599.973-1.904 2.848-4.311 4.167-5.349 1.318-1.037 3.462-3.978 4.763-6.537 1.301-2.558 3.737-6.369 5.412-8.469 1.675-2.1 3.57-5.475 4.21-7.5.64-2.025 2.49-5.374 4.11-7.442 3.285-4.192 5.264-8.506 6.303-13.74.382-1.925 2.261-5.823 4.175-8.661 2.89-4.287 3.727-6.808 4.939-14.879.89-5.924 2.652-12.434 4.513-16.675 1.68-3.826 3.475-9.281 3.99-12.121 1.46-8.047 2.229-72.975 1.121-94.664-.907-17.752-1.28-20.352-4.161-29-1.941-5.824-3.902-14.954-5.07-23.595-1.574-11.654-2.505-15.351-5.379-21.347-1.993-4.158-3.752-9.663-4.124-12.905-1.003-8.731-2.381-13.246-5.58-18.279-1.803-2.837-3.486-7.476-4.353-12-1.644-8.582-2.078-9.772-5.883-16.124-1.565-2.612-3.503-7.337-4.308-10.5-.805-3.162-2.983-8-4.839-10.75-1.857-2.75-3.92-7.25-4.586-10-1.441-5.953-2.507-8.269-5.139-11.163-1.083-1.19-3.072-5.203-4.42-8.919-1.349-3.716-3.771-8.257-5.381-10.092-1.611-1.834-3.667-5.92-4.57-9.08-.902-3.161-2.738-7.209-4.078-8.996-3.973-5.3-5.121-9.197-6.239-21.171-.897-9.61-1.52-12.171-4.051-16.655-1.644-2.914-3.738-8.275-4.652-11.913-.913-3.638-2.726-8.054-4.028-9.813-1.301-1.759-3.715-6-5.364-9.424-1.649-3.425-4.106-6.953-5.46-7.84-1.354-.887-2.731-2.459-3.059-3.494-.786-2.478-12.255-14.019-16.597-16.703-1.876-1.159-4.393-3.237-5.593-4.618-1.2-1.38-4.421-3.174-7.158-3.987-5.921-1.758-8.915-3.23-11.681-5.741-1.126-1.023-4.561-2.724-7.634-3.782-5.669-1.95-6.544-2.723-38.207-33.726-2.14-2.094-5.74-4.986-8-6.425-2.261-1.439-4.756-3.401-5.544-4.36-.788-.959-3.171-2.631-5.295-3.714-2.124-1.084-5.581-3.524-7.683-5.422-2.101-1.898-5.464-4.139-7.474-4.978-2.01-.84-5.651-3.051-8.091-4.914-2.44-1.862-6.143-3.924-8.23-4.583-2.087-.658-6.719-2.911-10.294-5.006-3.724-2.183-9.062-4.306-12.5-4.971-3.426-.662-8.503-2.678-11.834-4.698-4.749-2.88-7.942-3.891-17.179-5.439-6.703-1.124-14.3-3.159-18.568-4.975-6.473-2.755-8.793-3.166-22.321-3.953-19.683-1.146-50.812-1.127-66.774.041-10.843.793-14.023 1.448-22 4.53-5.128 1.981-12.876 4.104-17.218 4.719-6.284.889-8.922 1.824-12.933 4.584-2.772 1.907-7.545 4.109-10.607 4.893-3.061.785-7.244 2.52-9.295 3.857-5.021 3.274-11.643 3.282-17.207.021-2.262-1.325-6.607-3.061-9.655-3.857-3.048-.796-7.81-3.007-10.582-4.914-4.042-2.781-6.638-3.693-13.119-4.609-4.444-.629-12.227-2.764-17.297-4.745-8.256-3.226-10.689-3.697-23.314-4.512-15.929-1.028-48.894-.997-67.597.064m216.658 383.658c-1.096 1.097-.736 8.159.454 8.894 2.595 1.604 4.054-6.357 1.546-8.438-.738-.612-1.638-.818-2-.456M696 548.441c0 5.398 1.138 7.249 2.413 3.925.762-1.985-.296-8.176-1.526-8.936-.488-.301-.887 1.954-.887 5.011m-300.521 1.754c-.323.841-.45 4.179-.283 7.417.229 4.432.675 5.888 1.804 5.888 1.185 0 1.479-1.322 1.4-6.3-.099-6.272-1.715-10.148-2.921-7.005" fill="undefined" fill-rule="evenodd"/></svg>